<?xml version="1.0" encoding="utf-8"?>
<!-- Generator: Adobe Illustrator 23.0.1, SVG Export Plug-In . SVG Version: 6.00 Build 0)  -->
<svg version="1.1" id="Capa_1" xmlns="http://www.w3.org/2000/svg" xmlns:xlink="http://www.w3.org/1999/xlink" x="0px" y="0px"
	 viewBox="0 0 193 134.5" style="enable-background:new 0 0 193 134.5;" xml:space="preserve">
<style type="text/css">
	.st0{fill:#FFFFFF;}
</style>
<g>
	<g>
		<path class="st0" d="M41.3,129.6V122H43v6.1h3.7v1.6h-5.4V129.6z"/>
		<path class="st0" d="M47.6,129.6V122h1.8v7.7L47.6,129.6L47.6,129.6z M49,121.4l-1.1-0.3l0.6-1.4H50L49,121.4z"/>
		<path class="st0" d="M50.8,129.6V122h2.9c0.6,0,1.2,0.1,1.7,0.3c0.5,0.2,0.9,0.5,1.2,0.8s0.6,0.8,0.7,1.2s0.2,1,0.2,1.5
			c0,0.6-0.1,1.1-0.3,1.6s-0.4,0.9-0.8,1.2c-0.3,0.3-0.7,0.6-1.2,0.8s-1,0.3-1.6,0.3h-2.8V129.6z M55.7,125.8c0-0.3,0-0.6-0.1-0.9
			s-0.2-0.5-0.4-0.7s-0.4-0.4-0.6-0.5c-0.3-0.1-0.5-0.2-0.9-0.2h-1.1v4.6h1.1c0.3,0,0.6-0.1,0.9-0.2c0.3-0.1,0.5-0.3,0.6-0.5
			s0.3-0.4,0.4-0.7C55.7,126.4,55.7,126.1,55.7,125.8z"/>
		<path class="st0" d="M64,128.1v1.6h-5.4V122h5.3v1.6h-3.5v1.5h3v1.4h-3v1.6H64z"/>
		<path class="st0" d="M65,129.6V122h3.5c0.4,0,0.7,0.1,1,0.2s0.6,0.3,0.8,0.6c0.2,0.2,0.4,0.5,0.5,0.8s0.2,0.6,0.2,0.9
			c0,0.2,0,0.5-0.1,0.7s-0.1,0.4-0.2,0.6s-0.2,0.4-0.4,0.5c-0.2,0.2-0.3,0.3-0.5,0.4l1.7,2.9h-2l-1.5-2.5h-1.2v2.5L65,129.6
			L65,129.6z M66.8,125.6h1.6c0.2,0,0.4-0.1,0.5-0.3s0.2-0.5,0.2-0.8s-0.1-0.6-0.3-0.8c-0.2-0.2-0.4-0.3-0.6-0.3h-1.6v2.2H66.8z"/>
		<path class="st0" d="M80.2,128.1v1.6h-5.4V122h5.3v1.6h-3.5v1.5h3v1.4h-3v1.6H80.2z"/>
		<path class="st0" d="M83.1,125.2v4.4h-1.8V122h1.4l3.6,4.5V122H88v7.7h-1.4L83.1,125.2z"/>
		<path class="st0" d="M96.6,124.2c0,0-0.1-0.1-0.2-0.2s-0.3-0.2-0.5-0.2c-0.2-0.1-0.4-0.2-0.6-0.2c-0.2-0.1-0.5-0.1-0.7-0.1
			c-0.6,0-1,0.2-1,0.6c0,0.1,0,0.2,0.1,0.3c0.1,0.1,0.2,0.2,0.3,0.2c0.1,0.1,0.3,0.1,0.5,0.2s0.4,0.1,0.7,0.2c0.4,0.1,0.7,0.2,1,0.3
			s0.5,0.3,0.8,0.4c0.2,0.2,0.4,0.4,0.5,0.6c0.1,0.3,0.2,0.6,0.2,0.9c0,0.4-0.1,0.8-0.2,1.1s-0.4,0.5-0.6,0.7
			c-0.3,0.2-0.6,0.3-0.9,0.4s-0.7,0.1-1.1,0.1c-0.3,0-0.6,0-0.9-0.1s-0.6-0.1-0.9-0.2c-0.3-0.1-0.6-0.2-0.8-0.3
			c-0.3-0.1-0.5-0.2-0.7-0.4l0.8-1.5c0,0,0.1,0.1,0.3,0.2c0.2,0.1,0.4,0.2,0.6,0.3c0.2,0.1,0.5,0.2,0.8,0.3c0.3,0.1,0.6,0.1,0.9,0.1
			c0.6,0,0.9-0.2,0.9-0.6c0-0.1,0-0.3-0.1-0.4s-0.2-0.2-0.4-0.3c-0.2-0.1-0.4-0.1-0.6-0.2s-0.5-0.1-0.7-0.2
			c-0.4-0.1-0.7-0.2-0.9-0.4c-0.3-0.1-0.5-0.3-0.6-0.4s-0.3-0.4-0.4-0.6s-0.1-0.5-0.1-0.8c0-0.4,0.1-0.8,0.2-1.1
			c0.2-0.3,0.4-0.6,0.6-0.8c0.3-0.2,0.6-0.4,0.9-0.5s0.7-0.2,1.1-0.2c0.3,0,0.5,0,0.8,0.1c0.3,0,0.5,0.1,0.7,0.2s0.5,0.2,0.7,0.3
			s0.4,0.2,0.6,0.3L96.6,124.2z"/>
		<path class="st0" d="M104,128.1v1.6h-5.4V122h5.3v1.6h-3.5v1.5h3v1.4h-3v1.6H104z"/>
		<path class="st0" d="M105.1,129.6V122h3.5c0.4,0,0.7,0.1,1,0.2c0.3,0.2,0.6,0.3,0.8,0.6s0.4,0.5,0.5,0.8s0.2,0.6,0.2,0.9
			c0,0.2,0,0.5-0.1,0.7s-0.1,0.4-0.2,0.6s-0.2,0.4-0.4,0.5c-0.2,0.2-0.3,0.3-0.5,0.4l1.7,2.9h-2l-1.5-2.5h-1.2v2.5L105.1,129.6
			L105.1,129.6z M106.9,125.6h1.6c0.2,0,0.4-0.1,0.5-0.3s0.2-0.5,0.2-0.8s-0.1-0.6-0.3-0.8c-0.2-0.2-0.4-0.3-0.6-0.3h-1.6v2.2H106.9
			z"/>
		<path class="st0" d="M113.3,122l1.8,5.4l1.8-5.4h1.9l-2.9,7.7h-1.5l-2.9-7.7H113.3z"/>
		<path class="st0" d="M119.5,129.6V122h1.8v7.7L119.5,129.6L119.5,129.6z"/>
		<path class="st0" d="M122.3,125.7c0-0.5,0.1-0.9,0.3-1.4c0.2-0.5,0.4-0.9,0.8-1.2s0.7-0.7,1.2-0.9c0.5-0.2,1-0.3,1.6-0.3
			c0.7,0,1.3,0.2,1.9,0.5c0.5,0.3,0.9,0.7,1.2,1.2l-1.4,1c-0.1-0.2-0.2-0.4-0.3-0.5c-0.1-0.1-0.3-0.2-0.4-0.3
			c-0.2-0.1-0.3-0.1-0.5-0.2c-0.2,0-0.3,0-0.5,0c-0.3,0-0.6,0.1-0.9,0.2s-0.5,0.3-0.6,0.5c-0.2,0.2-0.3,0.5-0.4,0.7
			s-0.1,0.6-0.1,0.8c0,0.3,0,0.6,0.1,0.9s0.2,0.5,0.4,0.7c0.2,0.2,0.4,0.4,0.6,0.5s0.5,0.2,0.8,0.2c0.2,0,0.3,0,0.5-0.1
			c0.2,0,0.3-0.1,0.5-0.2s0.3-0.2,0.4-0.3s0.2-0.3,0.3-0.5l1.4,0.9c-0.1,0.3-0.3,0.5-0.5,0.8c-0.2,0.2-0.5,0.4-0.8,0.6
			s-0.6,0.3-0.9,0.3c-0.3,0.1-0.7,0.1-1,0.1c-0.6,0-1.1-0.1-1.5-0.3c-0.5-0.2-0.9-0.5-1.2-0.9c-0.3-0.4-0.6-0.8-0.8-1.3
			S122.3,126.2,122.3,125.7z"/>
		<path class="st0" d="M130.2,129.6V122h1.8v7.7L130.2,129.6L130.2,129.6z"/>
		<path class="st0" d="M136.8,129.7c-0.6,0-1.1-0.1-1.6-0.3s-0.9-0.5-1.2-0.9s-0.6-0.8-0.8-1.2c-0.2-0.5-0.3-1-0.3-1.4
			c0-0.5,0.1-1,0.3-1.5s0.5-0.9,0.8-1.2c0.3-0.4,0.7-0.6,1.2-0.9c0.5-0.2,1-0.3,1.5-0.3c0.6,0,1.1,0.1,1.6,0.3
			c0.5,0.2,0.9,0.5,1.2,0.9s0.6,0.8,0.8,1.3s0.3,0.9,0.3,1.4s-0.1,1-0.3,1.5s-0.5,0.9-0.8,1.2c-0.3,0.4-0.7,0.6-1.2,0.9
			C137.8,129.6,137.3,129.7,136.8,129.7z M134.8,125.8c0,0.3,0,0.6,0.1,0.9s0.2,0.5,0.4,0.7s0.4,0.4,0.6,0.5
			c0.3,0.1,0.5,0.2,0.9,0.2c0.3,0,0.6-0.1,0.9-0.2c0.3-0.1,0.5-0.3,0.6-0.5c0.2-0.2,0.3-0.5,0.4-0.7c0.1-0.3,0.1-0.6,0.1-0.8
			c0-0.3,0-0.6-0.1-0.9s-0.2-0.5-0.4-0.7s-0.4-0.4-0.6-0.5s-0.5-0.2-0.9-0.2c-0.3,0-0.6,0.1-0.9,0.2c-0.2,0.1-0.5,0.3-0.6,0.5
			c-0.2,0.2-0.3,0.5-0.4,0.7C134.8,125.2,134.8,125.5,134.8,125.8z"/>
		<path class="st0" d="M146.2,124.2c0,0-0.1-0.1-0.2-0.2s-0.3-0.2-0.5-0.2c-0.2-0.1-0.4-0.2-0.6-0.2c-0.2-0.1-0.5-0.1-0.7-0.1
			c-0.6,0-1,0.2-1,0.6c0,0.1,0,0.2,0.1,0.3c0.1,0.1,0.2,0.2,0.3,0.2c0.1,0.1,0.3,0.1,0.5,0.2s0.4,0.1,0.7,0.2c0.4,0.1,0.7,0.2,1,0.3
			c0.3,0.1,0.5,0.3,0.8,0.4s0.4,0.4,0.5,0.6c0.1,0.3,0.2,0.6,0.2,0.9c0,0.4-0.1,0.8-0.2,1.1s-0.4,0.5-0.6,0.7
			c-0.3,0.2-0.6,0.3-0.9,0.4s-0.7,0.1-1.1,0.1c-0.3,0-0.6,0-0.9-0.1c-0.3,0-0.6-0.1-0.9-0.2c-0.3-0.1-0.6-0.2-0.8-0.3
			c-0.3-0.1-0.5-0.2-0.7-0.4l0.8-1.5c0,0,0.1,0.1,0.3,0.2s0.4,0.2,0.6,0.3c0.2,0.1,0.5,0.2,0.8,0.3c0.3,0.1,0.6,0.1,0.9,0.1
			c0.6,0,0.9-0.2,0.9-0.6c0-0.1,0-0.3-0.1-0.4s-0.2-0.2-0.4-0.3c-0.2-0.1-0.4-0.1-0.6-0.2c-0.2-0.1-0.5-0.1-0.7-0.2
			c-0.4-0.1-0.7-0.2-0.9-0.4s-0.5-0.3-0.6-0.4c-0.2-0.2-0.3-0.4-0.4-0.6s-0.1-0.5-0.1-0.8c0-0.4,0.1-0.8,0.2-1.1
			c0.2-0.3,0.4-0.6,0.6-0.8s0.6-0.4,0.9-0.5c0.3-0.1,0.7-0.2,1.1-0.2c0.3,0,0.5,0,0.8,0.1c0.3,0,0.5,0.1,0.7,0.2s0.5,0.2,0.7,0.3
			c0.2,0.1,0.4,0.2,0.6,0.3L146.2,124.2z"/>
	</g>
	<g>
		<path class="st0" d="M17.7,113.1v-7.8l-2.5,5.5H13l-2.5-5.5v7.8h-4V98.3h4.4l3.2,6.9l3.2-6.9h4.4V113L17.7,113.1L17.7,113.1z"/>
		<path class="st0" d="M30.7,109.6c0.5,0,0.9-0.1,1.2-0.3c0.3-0.2,0.6-0.5,0.8-0.8s0.4-0.7,0.5-1.2c0.1-0.4,0.1-0.9,0.1-1.4v-7.6h4
			v7.6c0,1-0.1,2-0.4,2.9c-0.3,0.9-0.7,1.7-1.2,2.3s-1.2,1.2-2.1,1.5s-1.8,0.6-3,0.6s-2.2-0.2-3-0.6s-1.5-0.9-2.1-1.6
			c-0.5-0.7-0.9-1.4-1.2-2.3c-0.2-0.9-0.4-1.8-0.4-2.8v-7.6h4v7.6c0,0.5,0,1,0.1,1.4c0.1,0.5,0.2,0.8,0.5,1.2
			c0.2,0.3,0.5,0.6,0.8,0.8C29.8,109.5,30.2,109.6,30.7,109.6z"/>
		<path class="st0" d="M38.8,109.1c0,0,0.1,0.1,0.3,0.1c0.1,0.1,0.3,0.1,0.5,0.2s0.4,0.1,0.7,0.2s0.6,0.1,0.8,0.1
			c0.4,0,0.8-0.1,1-0.2c0.3-0.1,0.5-0.4,0.6-0.7c0.1-0.3,0.2-0.7,0.3-1.2s0.1-1.1,0.1-1.8v-7.5h4v7.5c0,1.1-0.1,2.1-0.2,3.1
			c-0.1,0.9-0.4,1.7-0.8,2.4c-0.4,0.7-1,1.2-1.8,1.5c-0.8,0.4-1.9,0.5-3.2,0.5c-1.2,0-2.3-0.3-3.2-0.9L38.8,109.1z"/>
		<path class="st0" d="M49.5,113.1V98.3h4V113L49.5,113.1L49.5,113.1z"/>
		<path class="st0" d="M55.3,105.6c0-0.9,0.2-1.8,0.5-2.7s0.8-1.7,1.5-2.3c0.7-0.7,1.4-1.3,2.4-1.7c0.9-0.4,2-0.6,3.2-0.6
			c1.4,0,2.7,0.3,3.7,0.9s1.8,1.4,2.3,2.3l-3.1,2.2c-0.1-0.4-0.3-0.7-0.6-0.9c-0.2-0.2-0.5-0.4-0.8-0.6c-0.3-0.1-0.6-0.2-0.9-0.3
			c-0.3-0.1-0.6-0.1-0.9-0.1c-0.6,0-1.1,0.1-1.5,0.3s-0.8,0.5-1,0.9c-0.3,0.4-0.5,0.8-0.6,1.2c-0.1,0.5-0.2,0.9-0.2,1.4
			s0.1,1,0.2,1.5c0.2,0.5,0.4,0.9,0.7,1.2c0.3,0.4,0.6,0.6,1.1,0.9c0.4,0.2,0.9,0.3,1.4,0.3c0.3,0,0.6,0,0.9-0.1
			c0.3-0.1,0.6-0.2,0.8-0.3c0.3-0.1,0.5-0.3,0.7-0.6c0.2-0.2,0.4-0.5,0.5-0.8l3.3,2c-0.2,0.5-0.6,1-1,1.5c-0.5,0.4-1,0.8-1.5,1.1
			c-0.6,0.3-1.2,0.5-1.8,0.7c-0.7,0.2-1.3,0.2-1.9,0.2c-1.1,0-2.1-0.2-3-0.7c-0.9-0.4-1.7-1-2.3-1.7c-0.7-0.7-1.2-1.5-1.5-2.5
			S55.3,106.5,55.3,105.6z"/>
		<path class="st0" d="M74.1,98.3h3.7l5.1,14.7h-4.1l-0.9-2.9H74l-0.9,2.9H69L74.1,98.3z M77.2,107.5l-1.3-4.6l-1.4,4.6H77.2z"/>
		<path class="st0" d="M91.9,113.1l-0.6-0.6c-0.4,0.3-0.9,0.4-1.3,0.6c-0.5,0.1-0.9,0.2-1.4,0.2c-0.6,0-1.2-0.1-1.6-0.3
			c-0.5-0.2-0.8-0.5-1.2-0.8c-0.3-0.3-0.5-0.7-0.7-1.1s-0.2-0.8-0.2-1.2c0-0.6,0.1-1.1,0.4-1.6s0.6-0.8,1-1.2
			c-0.3-0.4-0.5-0.7-0.7-1c-0.1-0.3-0.2-0.6-0.2-1s0.1-0.8,0.2-1.2c0.2-0.3,0.4-0.6,0.6-0.9c0.3-0.2,0.6-0.4,1-0.5s0.8-0.2,1.2-0.2
			c0.4,0,0.8,0,1.1,0.1c0.4,0.1,0.7,0.2,1,0.4c0.3,0.2,0.5,0.5,0.7,0.8s0.3,0.7,0.3,1.2s-0.1,1-0.4,1.4c-0.2,0.4-0.6,0.8-1,1.2
			l1.2,1.3c0.1-0.3,0.2-0.6,0.3-0.9c0.1-0.3,0.1-0.7,0.1-1H94c0,0.8-0.1,1.4-0.3,2.1c-0.2,0.6-0.4,1.2-0.7,1.6l2.4,2.5L91.9,113.1
			L91.9,113.1z M88.9,111c0.3,0,0.6-0.1,0.9-0.2l-1.7-1.8c-0.3,0.3-0.5,0.6-0.5,0.8c0,0.1,0,0.2,0.1,0.4c0,0.1,0.1,0.3,0.2,0.4
			s0.2,0.2,0.4,0.3S88.7,111,88.9,111z M88.1,105c0,0.1,0,0.2,0.1,0.3c0.1,0.1,0.2,0.2,0.4,0.4c0.2-0.1,0.3-0.3,0.4-0.4
			s0.1-0.2,0.1-0.4c0-0.2,0-0.3-0.1-0.4s-0.2-0.1-0.4-0.1c-0.2,0-0.3,0.1-0.4,0.2S88.1,104.8,88.1,105z"/>
		<path class="st0" d="M98.6,113.1V98.3h5.7c1.2,0,2.3,0.2,3.2,0.6s1.7,0.9,2.3,1.6c0.6,0.7,1.1,1.4,1.4,2.3s0.5,1.8,0.5,2.9
			s-0.2,2.1-0.5,3c-0.4,0.9-0.9,1.7-1.5,2.3c-0.7,0.6-1.4,1.1-2.3,1.5s-1.9,0.5-3.1,0.5L98.6,113.1L98.6,113.1z M107.6,105.7
			c0-0.6-0.1-1.1-0.2-1.6c-0.2-0.5-0.4-0.9-0.7-1.2c-0.3-0.3-0.6-0.6-1-0.8c-0.4-0.2-0.9-0.3-1.4-0.3h-1.6v7.7h1.6
			c0.5,0,1-0.1,1.4-0.3c0.4-0.2,0.8-0.5,1-0.8c0.3-0.3,0.5-0.8,0.6-1.2S107.6,106.2,107.6,105.7z"/>
		<path class="st0" d="M120.1,113.2c-1.1,0-2.1-0.2-3.1-0.6c-0.9-0.4-1.7-1-2.3-1.7c-0.7-0.7-1.2-1.5-1.5-2.4
			c-0.4-0.9-0.5-1.8-0.5-2.8s0.2-1.9,0.6-2.8s0.9-1.7,1.6-2.4c0.7-0.7,1.5-1.2,2.4-1.6s1.9-0.6,3-0.6s2.1,0.2,3.1,0.6
			c0.9,0.4,1.7,1,2.3,1.7c0.7,0.7,1.2,1.5,1.5,2.4c0.4,0.9,0.5,1.8,0.5,2.8s-0.2,1.9-0.6,2.8s-0.9,1.7-1.6,2.4
			c-0.7,0.7-1.5,1.2-2.4,1.7C122.2,113,121.2,113.2,120.1,113.2z M116.8,105.7c0,0.5,0.1,1,0.2,1.4c0.1,0.5,0.3,0.9,0.6,1.2
			c0.3,0.4,0.6,0.7,1,0.9c0.4,0.2,0.9,0.3,1.5,0.3s1.1-0.1,1.5-0.3c0.4-0.2,0.8-0.5,1-0.9c0.3-0.4,0.5-0.8,0.6-1.3s0.2-0.9,0.2-1.4
			s-0.1-1-0.2-1.4c-0.1-0.5-0.4-0.9-0.6-1.2c-0.3-0.4-0.6-0.6-1.1-0.9c-0.4-0.2-0.9-0.3-1.5-0.3s-1.1,0.1-1.5,0.3
			c-0.4,0.2-0.8,0.5-1,0.9c-0.3,0.4-0.5,0.8-0.6,1.2C116.9,104.7,116.8,105.2,116.8,105.7z"/>
		<path class="st0" d="M128.6,105.6c0-0.9,0.2-1.8,0.5-2.7c0.3-0.9,0.8-1.7,1.5-2.3c0.7-0.7,1.4-1.3,2.4-1.7s2-0.6,3.2-0.6
			c1.4,0,2.7,0.3,3.7,0.9s1.8,1.4,2.3,2.3l-3.1,2.2c-0.1-0.4-0.3-0.7-0.5-0.9c-0.2-0.2-0.5-0.4-0.8-0.6c-0.3-0.1-0.6-0.2-0.9-0.3
			c-0.3-0.1-0.6-0.1-0.9-0.1c-0.6,0-1.1,0.1-1.5,0.3c-0.4,0.2-0.8,0.5-1,0.9c-0.3,0.4-0.5,0.8-0.6,1.2c-0.1,0.5-0.2,0.9-0.2,1.4
			s0.1,1,0.2,1.5s0.4,0.9,0.7,1.2c0.3,0.4,0.6,0.6,1.1,0.9c0.4,0.2,0.9,0.3,1.4,0.3c0.3,0,0.6,0,0.9-0.1s0.6-0.2,0.8-0.3
			s0.5-0.3,0.7-0.6s0.4-0.5,0.5-0.8l3.3,2c-0.2,0.5-0.6,1-1,1.5c-0.5,0.4-1,0.8-1.5,1.1s-1.2,0.5-1.8,0.7c-0.7,0.2-1.3,0.2-1.9,0.2
			c-1.1,0-2.1-0.2-3-0.7c-0.9-0.4-1.7-1-2.3-1.7c-0.7-0.7-1.2-1.5-1.5-2.5C128.8,107.4,128.6,106.5,128.6,105.6z"/>
		<path class="st0" d="M154.9,113.1v-7.8l-2.5,5.5h-2.2l-2.5-5.5v7.8h-4V98.3h4.4l3.2,6.9l3.2-6.9h4.4V113L154.9,113.1L154.9,113.1z
			"/>
		<path class="st0" d="M165.3,98.3h3.7l5.1,14.7H170l-0.9-2.9h-3.9l-0.9,2.9h-4.1L165.3,98.3z M168.4,107.5l-1.3-4.6l-1.4,4.6H168.4
			z"/>
		<path class="st0" d="M173.9,105.6c0-0.9,0.2-1.8,0.5-2.7c0.3-0.9,0.8-1.7,1.5-2.3c0.7-0.7,1.4-1.3,2.4-1.7s2-0.6,3.2-0.6
			c1.4,0,2.7,0.3,3.7,0.9s1.8,1.4,2.3,2.3l-3.1,2.2c-0.1-0.4-0.3-0.7-0.5-0.9c-0.2-0.2-0.5-0.4-0.8-0.6c-0.3-0.1-0.6-0.2-0.9-0.3
			c-0.3-0.1-0.6-0.1-0.9-0.1c-0.6,0-1.1,0.1-1.5,0.3c-0.4,0.2-0.8,0.5-1,0.9c-0.3,0.4-0.5,0.8-0.6,1.2c-0.1,0.5-0.2,0.9-0.2,1.4
			s0.1,1,0.2,1.5s0.4,0.9,0.7,1.2c0.3,0.4,0.6,0.6,1.1,0.9c0.4,0.2,0.9,0.3,1.4,0.3c0.3,0,0.6,0,0.9-0.1s0.6-0.2,0.8-0.3
			s0.5-0.3,0.7-0.6s0.4-0.5,0.5-0.8l3.3,2c-0.2,0.5-0.6,1-1,1.5c-0.5,0.4-1,0.8-1.5,1.1s-1.2,0.5-1.8,0.7c-0.7,0.2-1.3,0.2-1.9,0.2
			c-1.1,0-2.1-0.2-3-0.7c-0.9-0.4-1.7-1-2.3-1.7c-0.7-0.7-1.2-1.5-1.5-2.5C174.1,107.4,173.9,106.5,173.9,105.6z"/>
	</g>
	<g id="XMLID_2704_">
		<path id="XMLID_2707_" class="st0" d="M99.2,43.6L99.2,43.6c0-1.4-0.6-2.8-1.7-3.9c-2.2-2.1-5.8-2-8,0.1L71.8,57.7
			c-0.3,0.3-0.7,0.5-1.2,0.5c-0.4,0-0.9-0.1-1.2-0.5L51.6,39.9c-2.2-2.2-5.8-2.3-8-0.1c-1.1,1.1-1.6,2.5-1.7,3.9l0,0v1v38.6
			c0,0.8,0.7,1.5,1.5,1.5h7.4c0.8,0,1.5-0.7,1.5-1.5V56.4l16,16c0.6,0.6,1.4,0.9,2.2,0.9c0.8,0,1.6-0.3,2.2-0.9l16-16v26.8
			c0,0.8,0.7,1.5,1.5,1.5h7.4c0.8,0,1.5-0.7,1.5-1.5V44.6l0,0L99.2,43.6L99.2,43.6z"/>
		<path id="XMLID_2706_" class="st0" d="M145.2,45.2c-2-2.1-4.4-3.7-7.3-5c-2.9-1.2-6.3-1.8-10.1-1.8h-22.2c-1.1,0-2,0.9-2,2v7.1
			c0,1.1,0.9,2,2,2h22.2c1.6,0,3.1,0.3,4.4,0.9c1.3,0.6,2.4,1.4,3.3,2.4c0.9,1,1.6,2.3,2.1,3.8s0.7,3.1,0.7,4.9
			c0,1.7-0.2,3.3-0.7,4.8s-1.1,2.8-2,3.8c-0.9,1.1-2,1.9-3.3,2.5s-2.8,0.9-4.4,0.9H114V54.1c0-1.2-1-2.2-2.2-2.2h-6
			c-1.2,0-2.2,1-2.2,2.2v13.4v11.3l0,0l0,0c0,0.1,0,0.2,0,0.2c0,3.1,2.5,5.5,5.5,5.5h18.6c3.5,0,6.7-0.6,9.6-1.7s5.3-2.7,7.4-4.7
			c2-2,3.6-4.5,4.7-7.3c1.1-2.8,1.7-6,1.7-9.6c0-3.2-0.5-6.2-1.5-9C148.6,49.7,147.1,47.2,145.2,45.2z"/>
		<path id="XMLID_2705_" class="st0" d="M96.5,6.3C46,6.3,5.1,25.9,5.1,50.1c0,12.8,11.3,24.2,29.4,32.3c0.6,0.3,1-0.6,0.5-0.9
			c-10.3-6.3-16.5-14.3-16.5-23c0-20.7,34.9-37.4,77.9-37.4s77.9,16.8,77.9,37.4c0,8.7-6.2,16.7-16.5,23c-0.5,0.3-0.1,1.2,0.5,0.9
			c18.1-8,29.4-19.5,29.4-32.3C187.9,25.9,147,6.3,96.5,6.3z"/>
	</g>
</g>
</svg>
